<?xml version="1.0" encoding="iso-8859-1"?>
<!-- Generator: Adobe Illustrator 19.0.0, SVG Export Plug-In . SVG Version: 6.00 Build 0)  -->
<svg version="1.1" id="Capa_1" xmlns="http://www.w3.org/2000/svg" xmlns:xlink="http://www.w3.org/1999/xlink" x="0px" y="0px"
	 viewBox="0 0 468.285 468.285" style="enable-background:new 0 0 468.285 468.285;" xml:space="preserve">
<path style="fill:#64798A;" d="M83.679,192.631h15.296V158.82c0-1.377-0.383-2.753-1.149-3.977L80.988,127.89H63.049l20.63,33.147
	V192.631z"/>
<rect x="112.93" y="167.208" style="fill:#EBF0F3;" width="23.096" height="25.413"/>
<path style="fill:#FCD462;" d="M403.91,190.383v127.563c0,7.742-6.306,13.986-14.049,13.986H14.041
	c-9.928,0-16.671-9.99-13.05-19.169L46.01,199.25c2.123-5.37,7.305-8.866,13.05-8.866h130.997V68.315
	c0-7.742,6.244-13.986,13.986-13.986h151.914c7.742,0,13.986,6.244,13.986,13.986v40.148
	C369.943,139.183,382.181,168.654,403.91,190.383z"/>
<g style="opacity:0.6;">
	<path style="fill:#F7BE56;" d="M361.702,290.223c-10.74-10.802-21.979-21.604-35.278-26.037
		c-13.237-4.37-27.286-3.309-40.585,0.562c-13.362,3.871-26.162,10.178-39.336,15.922c-13.05,5.682-26.724,10.927-41.022,11.426
		c-14.298,0.437-28.16-3.622-41.522-8.305c-13.3-4.933-26.662-9.615-39.961-14.736c-13.175-4.995-26.537-9.74-40.273-10.677
		c-13.799-1.186-27.66-0.125-41.46,1.124c13.674-2.373,27.598-3.996,41.522-3.684c14.049,0.5,27.785,4.933,41.147,9.491
		c13.424,4.495,26.661,9.303,40.023,13.924c13.3,4.558,26.849,8.305,40.398,7.68c13.549-0.312,26.849-5.12,39.961-10.677
		c13.05-5.495,26.037-12.113,39.899-15.36c13.674-3.497,28.223-4.183,41.772,0.874C340.597,267.246,351.586,278.547,361.702,290.223
		z"/>
</g>
<rect x="129.432" y="339.171" style="fill:#F7BE56;" width="201.616" height="35.884"/>
<polygon style="fill:#D5D6DB;" points="147.292,152.848 109.701,171.808 119.056,143.414 "/>
<rect x="207.6" y="71.314" style="fill:#27A2DB;" width="132.87" height="78.736"/>
<g style="opacity:0.5;">
	<polygon style="fill:#2D93BA;" points="340.472,71.312 340.472,150.048 207.602,150.048 	"/>
</g>
<path style="fill:#64798A;" d="M336.012,167.748v8.933c0,2.565-2.677,4.334-4.984,3.213c-11.15-5.418-22.299-5.418-33.447,0
	c-2.307,1.121-4.984-0.648-4.984-3.213v-8.933c0-1.961,1.589-3.55,3.55-3.55h36.315
	C334.423,164.198,336.012,165.788,336.012,167.748z"/>
<path style="fill:#2F4859;" d="M109.822,207.866v24.101c0,1.811-1.498,3.309-3.309,3.309H61.307c-1.811,0-3.309-1.498-3.309-3.309
	v-24.101c0-1.811,1.498-3.309,3.309-3.309h45.206C108.324,204.557,109.822,206.055,109.822,207.866z"/>
<path style="fill:#64798A;" d="M403.902,213.581v118.307H264.457c-0.356-3.731-0.533-7.462-0.533-11.369
	c0-61.107,49.739-110.846,111.023-110.846C385.071,209.673,394.664,210.917,403.902,213.581z"/>
<path id="SVGCleanerId_0" style="fill:#2F4859;" d="M468.285,320.547c0,51.496-41.912,93.41-93.406,93.41
	s-93.113-41.914-93.113-93.41c0-51.494,41.619-93.11,93.113-93.11S468.285,269.053,468.285,320.547z"/>
<g>
	<path id="SVGCleanerId_0_1_" style="fill:#2F4859;" d="M468.285,320.547c0,51.496-41.912,93.41-93.406,93.41
		s-93.113-41.914-93.113-93.41c0-51.494,41.619-93.11,93.113-93.11S468.285,269.053,468.285,320.547z"/>
</g>
<path style="fill:#D5D6DB;" d="M419.029,320.626c0,24.298-19.776,44.074-44.073,44.074s-43.935-19.776-43.935-44.074
	c0-24.297,19.638-43.933,43.935-43.933S419.029,296.329,419.029,320.626z"/>
<path style="fill:#64798A;" d="M164.802,331.888H20.205c8.704-31.62,37.659-54.89,72.12-54.89
	C126.965,276.998,156.098,300.268,164.802,331.888z"/>
<path style="fill:#2F4859;" d="M149.848,352.046c0,31.683-25.786,57.47-57.468,57.47s-57.288-25.787-57.288-57.47
	c0-31.682,25.606-57.285,57.288-57.285S149.848,320.364,149.848,352.046z"/>
<path style="fill:#D5D6DB;" d="M123.95,352.087c0,17.382-14.147,31.53-31.529,31.53s-31.43-14.148-31.43-31.53
	c0-17.382,14.048-31.429,31.43-31.429S123.95,334.706,123.95,352.087z"/>
<g>
	<path style="fill:#3A556A;" d="M466.075,300.87l-3.132,3.16c-9.172,9.255-9.139,24.182,0.075,33.395l3.057,3.057
		c1.422-6.395,2.131-13.145,2.131-19.895S467.497,307.264,466.075,300.87z"/>
	<path style="fill:#3A556A;" d="M449.074,270.306h4.324c-3.516-5.528-7.788-10.802-12.561-15.576
		c-4.773-4.773-9.922-8.919-15.45-12.435l0.02,4.449C425.466,259.774,436.044,270.306,449.074,270.306z"/>
	<path style="fill:#3A556A;" d="M391.754,232.704l3.057-3.057c-6.395-1.423-13.145-2.132-19.896-2.132
		c-6.75,0-13.323,0.709-19.717,2.132l3.16,3.132C367.613,241.951,382.54,241.918,391.754,232.704z"/>
	<path style="fill:#3A556A;" d="M324.634,246.648v-4.323c-5.527,3.516-10.802,7.787-15.576,12.561
		c-4.773,4.773-8.919,9.922-12.435,15.45l4.449-0.02C314.103,270.257,324.634,259.678,324.634,246.648z"/>
	<path style="fill:#3A556A;" d="M287.087,337.365l-3.122,3.184c-1.436-6.431-2.123-12.987-2.123-19.731
		c0-6.743,0.687-13.487,2.123-19.918l3.059,3.059C296.266,313.201,296.266,328.124,287.087,337.365z"/>
	<path style="fill:#3A556A;" d="M300.976,371.088h-4.323c3.516,5.527,7.788,10.802,12.561,15.575
		c4.773,4.773,9.922,8.919,15.45,12.435l-0.02-4.449C324.585,381.62,314.006,371.088,300.976,371.088z"/>
	<path style="fill:#3A556A;" d="M358.297,408.689l-3.057,3.057c6.394,1.422,13.145,2.132,19.895,2.132
		c6.751,0,13.323-0.709,19.718-2.132l-3.161-3.132C382.438,399.442,367.51,399.476,358.297,408.689z"/>
	<path style="fill:#3A556A;" d="M425.416,394.746v4.323c5.528-3.516,10.802-7.788,15.576-12.561
		c4.773-4.773,8.919-9.922,12.435-15.45l-4.449,0.02C435.948,371.137,425.416,381.716,425.416,394.746z"/>
	<path style="fill:#3A556A;" d="M80.988,127.93c0,1.676-4.06,3.074-8.966,3.074s-8.796-1.397-8.796-3.074
		c0-1.77,3.89-3.166,8.796-3.166S80.988,126.161,80.988,127.93z"/>
	<path style="fill:#3A556A;" d="M65.865,103.905c0.749,1.249,1.623,2.997,1.686,4.683s0,3.372-0.625,4.933
		c-0.624,1.623-1.748,2.872-2.435,3.934c-0.812,1.124-1.311,2.498-1.686,3.996c-0.312-1.498-0.25-3.184,0.312-4.62
		c0.562-1.498,1.311-2.747,1.498-3.996c0.25-1.186,0.25-2.56,0-3.871c-0.187-1.249-0.687-2.248-1.436-3.497
		c-0.749-1.249-1.623-2.997-1.686-4.683c-0.125-1.686-0.063-3.372,0.562-4.995c0.624-1.686,1.748-2.81,2.497-3.996
		c0.874-1.061,1.311-2.435,1.623-3.871c0.375,1.436,0.312,3.059-0.25,4.62c-0.625,1.498-1.311,2.747-1.498,3.934
		c-0.25,1.249-0.25,2.622,0,3.934C64.554,101.595,65.054,102.594,65.865,103.905z"/>
	<path style="fill:#3A556A;" d="M73.421,103.905c0.812,1.249,1.623,2.997,1.686,4.683s0.063,3.372-0.624,4.933
		c-0.5,1.623-1.623,2.872-2.435,3.934c-0.812,1.124-1.311,2.498-1.561,3.996c-0.437-1.498-0.312-3.184,0.188-4.62
		c0.624-1.498,1.311-2.747,1.561-3.996c0.187-1.186,0.187-2.56,0-3.871c-0.188-1.249-0.625-2.248-1.498-3.497
		c-0.75-1.249-1.561-2.997-1.623-4.683c-0.125-1.686-0.125-3.372,0.562-4.995c0.562-1.686,1.686-2.81,2.498-3.996
		c0.812-1.061,1.249-2.435,1.561-3.871c0.375,1.436,0.312,3.059-0.188,4.62c-0.624,1.498-1.311,2.747-1.561,3.934
		c-0.25,1.249-0.25,2.622,0,3.934C72.172,101.595,72.609,102.594,73.421,103.905z"/>
	<path style="fill:#3A556A;" d="M82.724,108.588c0.125,1.686,0.063,3.372-0.562,4.933c-0.624,1.623-1.748,2.872-2.497,3.934
		c-0.874,1.124-1.311,2.498-1.623,3.996c-0.375-1.498-0.312-3.184,0.312-4.62c0.5-1.498,1.311-2.747,1.436-3.996
		c0.313-1.186,0.25-2.56,0-3.871c-0.125-1.249-0.624-2.248-1.436-3.497c-0.812-1.249-1.561-2.997-1.686-4.683
		c-0.063-1.686,0-3.372,0.625-4.995c0.562-1.686,1.748-2.81,2.435-3.996c0.812-1.061,1.311-2.435,1.686-3.871
		c0.312,1.436,0.188,3.059-0.312,4.62c-0.562,1.498-1.311,2.747-1.561,3.934c-0.188,1.249-0.188,2.622,0,3.934
		c0.25,1.186,0.687,2.185,1.498,3.497C81.787,105.154,82.599,106.902,82.724,108.588z"/>
</g>
<g>
	<path style="fill:#FFFFFF;" d="M219.95,99.319l15.889-15.889c0.929-0.929,2.507-0.829,3.561,0.224
		c1.034,1.034,1.153,2.632,0.224,3.561l-15.889,15.889c-0.912,0.912-2.51,0.793-3.544-0.242
		C219.138,101.81,219.038,100.231,219.95,99.319z"/>
	<path style="fill:#FFFFFF;" d="M222.701,109.914l23.733-23.733c0.929-0.929,2.508-0.829,3.542,0.205
		c1.053,1.053,1.153,2.632,0.224,3.561l-23.733,23.733c-0.912,0.912-2.49,0.812-3.544-0.241
		C221.889,112.405,221.79,110.826,222.701,109.914z"/>
</g>
<g>
</g>
<g>
</g>
<g>
</g>
<g>
</g>
<g>
</g>
<g>
</g>
<g>
</g>
<g>
</g>
<g>
</g>
<g>
</g>
<g>
</g>
<g>
</g>
<g>
</g>
<g>
</g>
<g>
</g>
</svg>
